;TYPE=PLATED
;Layer: PTH_Through
;EasyEDA Pro v2.2.44.9, 2025-11-27 19:30:04
;Gerber Generator version 0.3
M48
METRIC,LZ,0000.00000
;Hole size 1 = 0.30500 METRIC
T01C0.30500
;Hole size 2 = 0.71120 METRIC
T02C0.71120
;Hole size 3 = 0.80000 METRIC
T03C0.80000
;Hole size 4 = 0.90002 METRIC
T04C0.90002
;Hole size 5 = 1.02001 METRIC
T05C1.02001
%
G05
G90
T01
X52.69721Y-27.43604
X53.98279Y-25.90396
X40.3225Y-22.6695
X39.624Y-18.669
X44.323Y-25.908
T02
X50.8Y-8.763
X48.26Y-8.763
X45.72Y-8.763
X43.18Y-8.763
T03
X56.388Y-19.54799
X56.388Y-11.94801
X38.1Y-23.73899
X38.1Y-16.13901
T04
X43.675Y-16.637
X51.57498Y-16.637
X43.675Y-19.177
X51.57498Y-19.177
X43.675Y-21.717
X51.57498Y-21.717
X43.675Y-24.257
X51.57498Y-24.257
T05
X29.337Y-13.208
X29.337Y-15.748
X29.337Y-18.288
X29.337Y-20.828
X29.337Y-23.368
X29.337Y-25.908
M30