G04 Layer: TopSilkscreenLayer*
G04 EasyEDA Pro v2.2.44.9, 2025-11-27 19:30:04*
G04 Gerber Generator version 0.3*
G04 Scale: 100 percent, Rotated: No, Reflected: No*
G04 Dimensions in millimeters*
G04 Leading zeros omitted, absolute positions, 4 integers and 5 decimals*
G04 Generated by one-click*
%FSLAX45Y45*%
%MOMM*%
%ADD10C,0.1524*%
%ADD11C,0.2032*%
%ADD12C,0.254*%
%ADD13C,0.3*%
%ADD14C,0.7236*%
G75*


G04 Text Start*
G54D10*
G01X5575444Y-2673944D02*
G01X5582268Y-2675691D01*
G01X5591019Y-2674745D01*
G01X5597272Y-2672034D01*
G01X5605273Y-2662500D01*
G01X5606856Y-2655871D01*
G01X5606268Y-2647088D01*
G01X5603363Y-2640672D01*
G01X5598317Y-2632459D01*
G01X5586448Y-2622500D01*
G01X5577290Y-2618794D01*
G01X5570661Y-2617210D01*
G01X5561715Y-2617993D01*
G01X5555461Y-2620703D01*
G01X5547461Y-2630238D01*
G01X5545878Y-2636867D01*
G01X5546660Y-2645813D01*
G01X5549371Y-2652066D01*
G01X5558350Y-2699058D02*
G01X5556961Y-2705850D01*
G01X5558088Y-2718732D01*
G01X5508277Y-2676936D01*
G01X4316921Y-1793222D02*
G01X4323271Y-1790174D01*
G01X4329367Y-1783824D01*
G01X4332415Y-1777728D01*
G01X4332415Y-1765282D01*
G01X4329367Y-1759186D01*
G01X4323271Y-1752836D01*
G01X4316921Y-1749788D01*
G01X4307777Y-1746740D01*
G01X4292283Y-1746740D01*
G01X4282885Y-1749788D01*
G01X4276789Y-1752836D01*
G01X4270439Y-1759186D01*
G01X4267391Y-1765282D01*
G01X4267391Y-1777728D01*
G01X4270439Y-1783824D01*
G01X4276789Y-1790174D01*
G01X4282885Y-1793222D01*
G01X4316921Y-1826496D02*
G01X4319969Y-1826496D01*
G01X4326319Y-1829544D01*
G01X4329367Y-1832592D01*
G01X4332415Y-1838688D01*
G01X4332415Y-1851134D01*
G01X4329367Y-1857484D01*
G01X4326319Y-1860532D01*
G01X4319969Y-1863580D01*
G01X4313873Y-1863580D01*
G01X4307777Y-1860532D01*
G01X4298379Y-1854182D01*
G01X4267391Y-1823448D01*
G01X4267391Y-1866628D01*
G01X2704562Y-2701397D02*
G01X2698212Y-2704445D01*
G01X2692116Y-2710795D01*
G01X2689068Y-2716891D01*
G01X2689068Y-2729337D01*
G01X2692116Y-2735433D01*
G01X2698212Y-2741783D01*
G01X2704562Y-2744831D01*
G01X2713706Y-2747879D01*
G01X2729200Y-2747879D01*
G01X2738598Y-2744831D01*
G01X2744694Y-2741783D01*
G01X2751044Y-2735433D01*
G01X2754092Y-2729337D01*
G01X2754092Y-2716891D01*
G01X2751044Y-2710795D01*
G01X2744694Y-2704445D01*
G01X2738598Y-2701397D01*
G01X2689068Y-2671171D02*
G01X2754092Y-2671171D01*
G01X2689068Y-2627991D02*
G01X2754092Y-2627991D01*
G01X2720056Y-2671171D02*
G01X2720056Y-2627991D01*
G01X2689068Y-2591669D02*
G01X2689068Y-2557633D01*
G01X2713706Y-2576175D01*
G01X2713706Y-2567031D01*
G01X2716754Y-2560681D01*
G01X2720056Y-2557633D01*
G01X2729200Y-2554585D01*
G01X2735550Y-2554585D01*
G01X2744694Y-2557633D01*
G01X2751044Y-2563729D01*
G01X2754092Y-2573127D01*
G01X2754092Y-2582525D01*
G01X2751044Y-2591669D01*
G01X2747742Y-2594717D01*
G01X2741646Y-2597765D01*
G01X2689068Y-2493625D02*
G01X2732248Y-2524359D01*
G01X2732248Y-2478131D01*
G01X2689068Y-2493625D02*
G01X2754092Y-2493625D01*
G01X2689068Y-2429363D02*
G01X2692116Y-2438761D01*
G01X2701514Y-2444857D01*
G01X2716754Y-2447905D01*
G01X2726152Y-2447905D01*
G01X2741646Y-2444857D01*
G01X2751044Y-2438761D01*
G01X2754092Y-2429363D01*
G01X2754092Y-2423267D01*
G01X2751044Y-2413869D01*
G01X2741646Y-2407773D01*
G01X2726152Y-2404725D01*
G01X2716754Y-2404725D01*
G01X2701514Y-2407773D01*
G01X2692116Y-2413869D01*
G01X2689068Y-2423267D01*
G01X2689068Y-2429363D01*
G01X2704562Y-2328271D02*
G01X2698212Y-2331319D01*
G01X2692116Y-2337415D01*
G01X2689068Y-2343765D01*
G01X2689068Y-2355957D01*
G01X2692116Y-2362307D01*
G01X2698212Y-2368403D01*
G01X2704562Y-2371451D01*
G01X2713706Y-2374499D01*
G01X2729200Y-2374499D01*
G01X2738598Y-2371451D01*
G01X2744694Y-2368403D01*
G01X2751044Y-2362307D01*
G01X2754092Y-2355957D01*
G01X2754092Y-2343765D01*
G01X2751044Y-2337415D01*
G01X2744694Y-2331319D01*
G01X2738598Y-2328271D01*
G01X2729200Y-2328271D01*
G01X2729200Y-2343765D02*
G01X2729200Y-2328271D01*
G01X5439166Y-2012189D02*
G01X5504190Y-2012189D01*
G01X5439166Y-2012189D02*
G01X5439166Y-1984249D01*
G01X5442214Y-1975105D01*
G01X5445262Y-1972057D01*
G01X5451612Y-1968755D01*
G01X5457708Y-1968755D01*
G01X5463804Y-1972057D01*
G01X5466852Y-1975105D01*
G01X5470154Y-1984249D01*
G01X5470154Y-2012189D01*
G01X5470154Y-1990599D02*
G01X5504190Y-1968755D01*
G01X5448310Y-1901445D02*
G01X5442214Y-1904493D01*
G01X5439166Y-1913891D01*
G01X5439166Y-1919987D01*
G01X5442214Y-1929385D01*
G01X5451612Y-1935481D01*
G01X5466852Y-1938529D01*
G01X5482346Y-1938529D01*
G01X5494792Y-1935481D01*
G01X5501142Y-1929385D01*
G01X5504190Y-1919987D01*
G01X5504190Y-1916939D01*
G01X5501142Y-1907795D01*
G01X5494792Y-1901445D01*
G01X5485648Y-1898397D01*
G01X5482346Y-1898397D01*
G01X5473202Y-1901445D01*
G01X5466852Y-1907795D01*
G01X5463804Y-1916939D01*
G01X5463804Y-1919987D01*
G01X5466852Y-1929385D01*
G01X5473202Y-1935481D01*
G01X5482346Y-1938529D01*
G01X3610366Y-2431289D02*
G01X3675390Y-2431289D01*
G01X3610366Y-2431289D02*
G01X3610366Y-2403349D01*
G01X3613414Y-2394205D01*
G01X3616462Y-2391157D01*
G01X3622812Y-2387855D01*
G01X3628908Y-2387855D01*
G01X3635004Y-2391157D01*
G01X3638052Y-2394205D01*
G01X3641354Y-2403349D01*
G01X3641354Y-2431289D01*
G01X3641354Y-2409699D02*
G01X3675390Y-2387855D01*
G01X3610366Y-2314449D02*
G01X3675390Y-2345437D01*
G01X3610366Y-2357629D02*
G01X3610366Y-2314449D01*
G01X4467860Y-1463040D02*
G01X4452620Y-1503172D01*
G01X4467860Y-1463040D02*
G01X4483100Y-1503172D01*
G01X4458462Y-1489710D02*
G01X4477512Y-1489710D01*
G01X4520946Y-1463040D02*
G01X4520946Y-1503172D01*
G01X4507484Y-1463040D02*
G01X4534154Y-1463040D01*
G01X4572000Y-1463040D02*
G01X4572000Y-1503172D01*
G01X4558538Y-1463040D02*
G01X4585208Y-1463040D01*
G01X4609592Y-1463040D02*
G01X4609592Y-1503172D01*
G01X4633976Y-1463040D02*
G01X4633976Y-1503172D01*
G01X4633976Y-1463040D02*
G01X4660646Y-1503172D01*
G01X4660646Y-1463040D02*
G01X4660646Y-1503172D01*
G01X4685030Y-1463040D02*
G01X4700270Y-1482090D01*
G01X4700270Y-1503172D01*
G01X4715510Y-1463040D02*
G01X4700270Y-1482090D01*
G01X4749546Y-1463040D02*
G01X4743704Y-1465072D01*
G01X4741926Y-1468882D01*
G01X4741926Y-1472692D01*
G01X4743704Y-1476502D01*
G01X4747514Y-1478280D01*
G01X4755134Y-1480312D01*
G01X4760976Y-1482090D01*
G01X4764786Y-1485900D01*
G01X4766564Y-1489710D01*
G01X4766564Y-1495552D01*
G01X4764786Y-1499362D01*
G01X4762754Y-1501140D01*
G01X4757166Y-1503172D01*
G01X4749546Y-1503172D01*
G01X4743704Y-1501140D01*
G01X4741926Y-1499362D01*
G01X4739894Y-1495552D01*
G01X4739894Y-1489710D01*
G01X4741926Y-1485900D01*
G01X4745736Y-1482090D01*
G01X4751324Y-1480312D01*
G01X4758944Y-1478280D01*
G01X4762754Y-1476502D01*
G01X4764786Y-1472692D01*
G01X4764786Y-1468882D01*
G01X4762754Y-1465072D01*
G01X4757166Y-1463040D01*
G01X4749546Y-1463040D01*
G01X4813808Y-1463040D02*
G01X4794758Y-1463040D01*
G01X4792980Y-1480312D01*
G01X4794758Y-1478280D01*
G01X4800600Y-1476502D01*
G01X4806188Y-1476502D01*
G01X4812030Y-1478280D01*
G01X4815840Y-1482090D01*
G01X4817618Y-1487932D01*
G01X4817618Y-1491742D01*
G01X4815840Y-1497330D01*
G01X4812030Y-1501140D01*
G01X4806188Y-1503172D01*
G01X4800600Y-1503172D01*
G01X4794758Y-1501140D01*
G01X4792980Y-1499362D01*
G01X4790948Y-1495552D01*
G01X4842002Y-1485900D02*
G01X4876292Y-1485900D01*
G01X4902708Y-1472692D02*
G01X4902708Y-1470660D01*
G01X4904486Y-1466850D01*
G01X4906518Y-1465072D01*
G01X4910328Y-1463040D01*
G01X4917948Y-1463040D01*
G01X4921758Y-1465072D01*
G01X4923536Y-1466850D01*
G01X4925568Y-1470660D01*
G01X4925568Y-1474470D01*
G01X4923536Y-1478280D01*
G01X4919726Y-1484122D01*
G01X4900676Y-1503172D01*
G01X4927346Y-1503172D01*
G01X4963160Y-1463040D02*
G01X4957572Y-1465072D01*
G01X4953762Y-1470660D01*
G01X4951730Y-1480312D01*
G01X4951730Y-1485900D01*
G01X4953762Y-1495552D01*
G01X4957572Y-1501140D01*
G01X4963160Y-1503172D01*
G01X4966970Y-1503172D01*
G01X4972812Y-1501140D01*
G01X4976622Y-1495552D01*
G01X4978400Y-1485900D01*
G01X4978400Y-1480312D01*
G01X4976622Y-1470660D01*
G01X4972812Y-1465072D01*
G01X4966970Y-1463040D01*
G01X4963160Y-1463040D01*
G01X5002784Y-1463040D02*
G01X5002784Y-1503172D01*
G01X5002784Y-1463040D02*
G01X5020056Y-1463040D01*
G01X5025644Y-1465072D01*
G01X5027676Y-1466850D01*
G01X5029454Y-1470660D01*
G01X5029454Y-1476502D01*
G01X5027676Y-1480312D01*
G01X5025644Y-1482090D01*
G01X5020056Y-1484122D01*
G01X5002784Y-1484122D01*
G01X5053838Y-1463040D02*
G01X5053838Y-1491742D01*
G01X5055870Y-1497330D01*
G01X5059680Y-1501140D01*
G01X5065268Y-1503172D01*
G01X5069078Y-1503172D01*
G01X5074920Y-1501140D01*
G01X5078730Y-1497330D01*
G01X5080508Y-1491742D01*
G01X5080508Y-1463040D01*
G01X4820920Y-1175766D02*
G01X4820920Y-1240790D01*
G01X4820920Y-1175766D02*
G01X4842510Y-1175766D01*
G01X4851908Y-1178814D01*
G01X4858004Y-1184910D01*
G01X4861052Y-1191260D01*
G01X4864354Y-1200404D01*
G01X4864354Y-1215898D01*
G01X4861052Y-1225296D01*
G01X4858004Y-1231392D01*
G01X4851908Y-1237742D01*
G01X4842510Y-1240790D01*
G01X4820920Y-1240790D01*
G01X4894580Y-1175766D02*
G01X4894580Y-1240790D01*
G01X4937760Y-1175766D02*
G01X4937760Y-1240790D01*
G01X4894580Y-1206754D02*
G01X4937760Y-1206754D01*
G01X4989576Y-1175766D02*
G01X4989576Y-1240790D01*
G01X4967986Y-1175766D02*
G01X5011166Y-1175766D01*
G01X5041392Y-1188212D02*
G01X5047488Y-1184910D01*
G01X5056632Y-1175766D01*
G01X5056632Y-1240790D01*
G01X5086858Y-1188212D02*
G01X5092954Y-1184910D01*
G01X5102098Y-1175766D01*
G01X5102098Y-1240790D01*
G54D11*
G01X2707640Y-502920D02*
G01X2707640Y-556260D01*
G01X2689860Y-502920D02*
G01X2725420Y-502920D01*
G01X2757932Y-535940D02*
G01X2788412Y-535940D01*
G01X2788412Y-530860D01*
G01X2785872Y-525780D01*
G01X2783332Y-523240D01*
G01X2778252Y-520700D01*
G01X2770632Y-520700D01*
G01X2765552Y-523240D01*
G01X2760472Y-528320D01*
G01X2757932Y-535940D01*
G01X2757932Y-541020D01*
G01X2760472Y-548640D01*
G01X2765552Y-553720D01*
G01X2770632Y-556260D01*
G01X2778252Y-556260D01*
G01X2783332Y-553720D01*
G01X2788412Y-548640D01*
G01X2820924Y-520700D02*
G01X2820924Y-556260D01*
G01X2820924Y-530860D02*
G01X2828544Y-523240D01*
G01X2833624Y-520700D01*
G01X2841244Y-520700D01*
G01X2846324Y-523240D01*
G01X2848864Y-530860D01*
G01X2848864Y-556260D01*
G01X2848864Y-530860D02*
G01X2856484Y-523240D01*
G01X2861564Y-520700D01*
G01X2869184Y-520700D01*
G01X2874264Y-523240D01*
G01X2876804Y-530860D01*
G01X2876804Y-556260D01*
G01X2909316Y-520700D02*
G01X2909316Y-574040D01*
G01X2909316Y-528320D02*
G01X2914396Y-523240D01*
G01X2919476Y-520700D01*
G01X2927096Y-520700D01*
G01X2932176Y-523240D01*
G01X2937256Y-528320D01*
G01X2939796Y-535940D01*
G01X2939796Y-541020D01*
G01X2937256Y-548640D01*
G01X2932176Y-553720D01*
G01X2927096Y-556260D01*
G01X2919476Y-556260D01*
G01X2914396Y-553720D01*
G01X2909316Y-548640D01*
G01X3057144Y-528320D02*
G01X3054604Y-523240D01*
G01X3046984Y-520700D01*
G01X3039364Y-520700D01*
G01X3031744Y-523240D01*
G01X3029204Y-528320D01*
G01X3031744Y-533400D01*
G01X3036824Y-535940D01*
G01X3049524Y-538480D01*
G01X3054604Y-541020D01*
G01X3057144Y-546100D01*
G01X3057144Y-548640D01*
G01X3054604Y-553720D01*
G01X3046984Y-556260D01*
G01X3039364Y-556260D01*
G01X3031744Y-553720D01*
G01X3029204Y-548640D01*
G01X3089656Y-535940D02*
G01X3120136Y-535940D01*
G01X3120136Y-530860D01*
G01X3117596Y-525780D01*
G01X3115056Y-523240D01*
G01X3109976Y-520700D01*
G01X3102356Y-520700D01*
G01X3097276Y-523240D01*
G01X3092196Y-528320D01*
G01X3089656Y-535940D01*
G01X3089656Y-541020D01*
G01X3092196Y-548640D01*
G01X3097276Y-553720D01*
G01X3102356Y-556260D01*
G01X3109976Y-556260D01*
G01X3115056Y-553720D01*
G01X3120136Y-548640D01*
G01X3152648Y-520700D02*
G01X3152648Y-556260D01*
G01X3152648Y-530860D02*
G01X3160268Y-523240D01*
G01X3165348Y-520700D01*
G01X3172968Y-520700D01*
G01X3178048Y-523240D01*
G01X3180588Y-530860D01*
G01X3180588Y-556260D01*
G01X3241040Y-528320D02*
G01X3238500Y-523240D01*
G01X3230880Y-520700D01*
G01X3223260Y-520700D01*
G01X3215640Y-523240D01*
G01X3213100Y-528320D01*
G01X3215640Y-533400D01*
G01X3220720Y-535940D01*
G01X3233420Y-538480D01*
G01X3238500Y-541020D01*
G01X3241040Y-546100D01*
G01X3241040Y-548640D01*
G01X3238500Y-553720D01*
G01X3230880Y-556260D01*
G01X3223260Y-556260D01*
G01X3215640Y-553720D01*
G01X3213100Y-548640D01*
G01X3286252Y-520700D02*
G01X3281172Y-523240D01*
G01X3276092Y-528320D01*
G01X3273552Y-535940D01*
G01X3273552Y-541020D01*
G01X3276092Y-548640D01*
G01X3281172Y-553720D01*
G01X3286252Y-556260D01*
G01X3293872Y-556260D01*
G01X3298952Y-553720D01*
G01X3304032Y-548640D01*
G01X3306572Y-541020D01*
G01X3306572Y-535940D01*
G01X3304032Y-528320D01*
G01X3298952Y-523240D01*
G01X3293872Y-520700D01*
G01X3286252Y-520700D01*
G01X3339084Y-520700D02*
G01X3339084Y-556260D01*
G01X3339084Y-535940D02*
G01X3341624Y-528320D01*
G01X3346704Y-523240D01*
G01X3351784Y-520700D01*
G01X3359404Y-520700D01*
G01X3391916Y-533400D02*
G01X3437636Y-533400D01*
G01X3490468Y-502920D02*
G01X3470148Y-556260D01*
G01X3490468Y-502920D02*
G01X3510788Y-556260D01*
G01X3477768Y-538480D02*
G01X3503168Y-538480D01*
G01X3561080Y-502920D02*
G01X3561080Y-556260D01*
G01X3543300Y-502920D02*
G01X3578860Y-502920D01*
G01X3618992Y-502920D02*
G01X3618992Y-546100D01*
G01X3621532Y-553720D01*
G01X3626612Y-556260D01*
G01X3631692Y-556260D01*
G01X3611372Y-520700D02*
G01X3629152Y-520700D01*
G01X3664204Y-502920D02*
G01X3666744Y-505460D01*
G01X3669284Y-502920D01*
G01X3666744Y-500380D01*
G01X3664204Y-502920D01*
G01X3666744Y-520700D02*
G01X3666744Y-556260D01*
G01X3701796Y-520700D02*
G01X3701796Y-556260D01*
G01X3701796Y-530860D02*
G01X3709416Y-523240D01*
G01X3714496Y-520700D01*
G01X3722116Y-520700D01*
G01X3727196Y-523240D01*
G01X3729736Y-530860D01*
G01X3729736Y-556260D01*
G01X3764788Y-520700D02*
G01X3780028Y-556260D01*
G01X3795268Y-520700D02*
G01X3780028Y-556260D01*
G01X3774948Y-566420D01*
G01X3769868Y-571500D01*
G01X3764788Y-574040D01*
G01X3762248Y-574040D01*
G01X3840480Y-502920D02*
G01X3832860Y-505460D01*
G01X3830320Y-510540D01*
G01X3830320Y-515620D01*
G01X3832860Y-520700D01*
G01X3837940Y-523240D01*
G01X3848100Y-525780D01*
G01X3855720Y-528320D01*
G01X3860800Y-533400D01*
G01X3863340Y-538480D01*
G01X3863340Y-546100D01*
G01X3860800Y-551180D01*
G01X3858260Y-553720D01*
G01X3850640Y-556260D01*
G01X3840480Y-556260D01*
G01X3832860Y-553720D01*
G01X3830320Y-551180D01*
G01X3827780Y-546100D01*
G01X3827780Y-538480D01*
G01X3830320Y-533400D01*
G01X3835400Y-528320D01*
G01X3843020Y-525780D01*
G01X3853180Y-523240D01*
G01X3858260Y-520700D01*
G01X3860800Y-515620D01*
G01X3860800Y-510540D01*
G01X3858260Y-505460D01*
G01X3850640Y-502920D01*
G01X3840480Y-502920D01*
G01X3926332Y-502920D02*
G01X3900932Y-502920D01*
G01X3898392Y-525780D01*
G01X3900932Y-523240D01*
G01X3908552Y-520700D01*
G01X3916172Y-520700D01*
G01X3923792Y-523240D01*
G01X3928872Y-528320D01*
G01X3931412Y-535940D01*
G01X3931412Y-541020D01*
G01X3928872Y-548640D01*
G01X3923792Y-553720D01*
G01X3916172Y-556260D01*
G01X3908552Y-556260D01*
G01X3900932Y-553720D01*
G01X3898392Y-551180D01*
G01X3895852Y-546100D01*
G01X3032760Y-629920D02*
G01X3032760Y-683260D01*
G01X3032760Y-629920D02*
G01X3068320Y-683260D01*
G01X3068320Y-629920D02*
G01X3068320Y-683260D01*
G01X3113532Y-647700D02*
G01X3108452Y-650240D01*
G01X3103372Y-655320D01*
G01X3100832Y-662940D01*
G01X3100832Y-668020D01*
G01X3103372Y-675640D01*
G01X3108452Y-680720D01*
G01X3113532Y-683260D01*
G01X3121152Y-683260D01*
G01X3126232Y-680720D01*
G01X3131312Y-675640D01*
G01X3133852Y-668020D01*
G01X3133852Y-662940D01*
G01X3131312Y-655320D01*
G01X3126232Y-650240D01*
G01X3121152Y-647700D01*
G01X3113532Y-647700D01*
G01X3166364Y-647700D02*
G01X3181604Y-683260D01*
G01X3196844Y-647700D02*
G01X3181604Y-683260D01*
G01X3229356Y-660400D02*
G01X3275076Y-660400D01*
G01X3310128Y-642620D02*
G01X3310128Y-640080D01*
G01X3312668Y-635000D01*
G01X3315208Y-632460D01*
G01X3320288Y-629920D01*
G01X3330448Y-629920D01*
G01X3335528Y-632460D01*
G01X3338068Y-635000D01*
G01X3340608Y-640080D01*
G01X3340608Y-645160D01*
G01X3338068Y-650240D01*
G01X3332988Y-657860D01*
G01X3307588Y-683260D01*
G01X3343148Y-683260D01*
G01X3390900Y-629920D02*
G01X3383280Y-632460D01*
G01X3378200Y-640080D01*
G01X3375660Y-652780D01*
G01X3375660Y-660400D01*
G01X3378200Y-673100D01*
G01X3383280Y-680720D01*
G01X3390900Y-683260D01*
G01X3395980Y-683260D01*
G01X3403600Y-680720D01*
G01X3408680Y-673100D01*
G01X3411220Y-660400D01*
G01X3411220Y-652780D01*
G01X3408680Y-640080D01*
G01X3403600Y-632460D01*
G01X3395980Y-629920D01*
G01X3390900Y-629920D01*
G01X3446272Y-642620D02*
G01X3446272Y-640080D01*
G01X3448812Y-635000D01*
G01X3451352Y-632460D01*
G01X3456432Y-629920D01*
G01X3466592Y-629920D01*
G01X3471672Y-632460D01*
G01X3474212Y-635000D01*
G01X3476752Y-640080D01*
G01X3476752Y-645160D01*
G01X3474212Y-650240D01*
G01X3469132Y-657860D01*
G01X3443732Y-683260D01*
G01X3479292Y-683260D01*
G01X3542284Y-629920D02*
G01X3516884Y-629920D01*
G01X3514344Y-652780D01*
G01X3516884Y-650240D01*
G01X3524504Y-647700D01*
G01X3532124Y-647700D01*
G01X3539744Y-650240D01*
G01X3544824Y-655320D01*
G01X3547364Y-662940D01*
G01X3547364Y-668020D01*
G01X3544824Y-675640D01*
G01X3539744Y-680720D01*
G01X3532124Y-683260D01*
G01X3524504Y-683260D01*
G01X3516884Y-680720D01*
G01X3514344Y-678180D01*
G01X3511804Y-673100D01*
G01X3248660Y-883920D02*
G01X3248660Y-937260D01*
G01X3368548Y-883920D02*
G01X3368548Y-937260D01*
G01X3368548Y-909320D02*
G01X3363468Y-904240D01*
G01X3358388Y-901700D01*
G01X3350768Y-901700D01*
G01X3345688Y-904240D01*
G01X3340608Y-909320D01*
G01X3338068Y-916940D01*
G01X3338068Y-922020D01*
G01X3340608Y-929640D01*
G01X3345688Y-934720D01*
G01X3350768Y-937260D01*
G01X3358388Y-937260D01*
G01X3363468Y-934720D01*
G01X3368548Y-929640D01*
G01X3413760Y-901700D02*
G01X3408680Y-904240D01*
G01X3403600Y-909320D01*
G01X3401060Y-916940D01*
G01X3401060Y-922020D01*
G01X3403600Y-929640D01*
G01X3408680Y-934720D01*
G01X3413760Y-937260D01*
G01X3421380Y-937260D01*
G01X3426460Y-934720D01*
G01X3431540Y-929640D01*
G01X3434080Y-922020D01*
G01X3434080Y-916940D01*
G01X3431540Y-909320D01*
G01X3426460Y-904240D01*
G01X3421380Y-901700D01*
G01X3413760Y-901700D01*
G01X3466592Y-901700D02*
G01X3466592Y-937260D01*
G01X3466592Y-911860D02*
G01X3474212Y-904240D01*
G01X3479292Y-901700D01*
G01X3486912Y-901700D01*
G01X3491992Y-904240D01*
G01X3494532Y-911860D01*
G01X3494532Y-937260D01*
G01X3532124Y-876300D02*
G01X3532124Y-891540D01*
G01X3572256Y-883920D02*
G01X3572256Y-927100D01*
G01X3574796Y-934720D01*
G01X3579876Y-937260D01*
G01X3584956Y-937260D01*
G01X3564636Y-901700D02*
G01X3582416Y-901700D01*
G01X3350260Y-998220D02*
G01X3350260Y-1051560D01*
G01X3375660Y-1016000D02*
G01X3350260Y-1041400D01*
G01X3360420Y-1031240D02*
G01X3378200Y-1051560D01*
G01X3410712Y-1016000D02*
G01X3410712Y-1051560D01*
G01X3410712Y-1026160D02*
G01X3418332Y-1018540D01*
G01X3423412Y-1016000D01*
G01X3431032Y-1016000D01*
G01X3436112Y-1018540D01*
G01X3438652Y-1026160D01*
G01X3438652Y-1051560D01*
G01X3483864Y-1016000D02*
G01X3478784Y-1018540D01*
G01X3473704Y-1023620D01*
G01X3471164Y-1031240D01*
G01X3471164Y-1036320D01*
G01X3473704Y-1043940D01*
G01X3478784Y-1049020D01*
G01X3483864Y-1051560D01*
G01X3491484Y-1051560D01*
G01X3496564Y-1049020D01*
G01X3501644Y-1043940D01*
G01X3504184Y-1036320D01*
G01X3504184Y-1031240D01*
G01X3501644Y-1023620D01*
G01X3496564Y-1018540D01*
G01X3491484Y-1016000D01*
G01X3483864Y-1016000D01*
G01X3536696Y-1016000D02*
G01X3546856Y-1051560D01*
G01X3557016Y-1016000D02*
G01X3546856Y-1051560D01*
G01X3557016Y-1016000D02*
G01X3567176Y-1051560D01*
G01X3577336Y-1016000D02*
G01X3567176Y-1051560D01*
G01X3666744Y-1016000D02*
G01X3676904Y-1051560D01*
G01X3687064Y-1016000D02*
G01X3676904Y-1051560D01*
G01X3687064Y-1016000D02*
G01X3697224Y-1051560D01*
G01X3707384Y-1016000D02*
G01X3697224Y-1051560D01*
G01X3739896Y-998220D02*
G01X3739896Y-1051560D01*
G01X3739896Y-1026160D02*
G01X3747516Y-1018540D01*
G01X3752596Y-1016000D01*
G01X3760216Y-1016000D01*
G01X3765296Y-1018540D01*
G01X3767836Y-1026160D01*
G01X3767836Y-1051560D01*
G01X3830828Y-1016000D02*
G01X3830828Y-1051560D01*
G01X3830828Y-1023620D02*
G01X3825748Y-1018540D01*
G01X3820668Y-1016000D01*
G01X3813048Y-1016000D01*
G01X3807968Y-1018540D01*
G01X3802888Y-1023620D01*
G01X3800348Y-1031240D01*
G01X3800348Y-1036320D01*
G01X3802888Y-1043940D01*
G01X3807968Y-1049020D01*
G01X3813048Y-1051560D01*
G01X3820668Y-1051560D01*
G01X3825748Y-1049020D01*
G01X3830828Y-1043940D01*
G01X3870960Y-998220D02*
G01X3870960Y-1041400D01*
G01X3873500Y-1049020D01*
G01X3878580Y-1051560D01*
G01X3883660Y-1051560D01*
G01X3863340Y-1016000D02*
G01X3881120Y-1016000D01*
G01X3464560Y-1112520D02*
G01X3464560Y-1165860D01*
G01X3502152Y-1104900D02*
G01X3502152Y-1120140D01*
G01X3534664Y-1130300D02*
G01X3534664Y-1165860D01*
G01X3534664Y-1140460D02*
G01X3542284Y-1132840D01*
G01X3547364Y-1130300D01*
G01X3554984Y-1130300D01*
G01X3560064Y-1132840D01*
G01X3562604Y-1140460D01*
G01X3562604Y-1165860D01*
G01X3562604Y-1140460D02*
G01X3570224Y-1132840D01*
G01X3575304Y-1130300D01*
G01X3582924Y-1130300D01*
G01X3588004Y-1132840D01*
G01X3590544Y-1140460D01*
G01X3590544Y-1165860D01*
G01X3710432Y-1112520D02*
G01X3710432Y-1165860D01*
G01X3710432Y-1137920D02*
G01X3705352Y-1132840D01*
G01X3700272Y-1130300D01*
G01X3692652Y-1130300D01*
G01X3687572Y-1132840D01*
G01X3682492Y-1137920D01*
G01X3679952Y-1145540D01*
G01X3679952Y-1150620D01*
G01X3682492Y-1158240D01*
G01X3687572Y-1163320D01*
G01X3692652Y-1165860D01*
G01X3700272Y-1165860D01*
G01X3705352Y-1163320D01*
G01X3710432Y-1158240D01*
G01X3755644Y-1130300D02*
G01X3750564Y-1132840D01*
G01X3745484Y-1137920D01*
G01X3742944Y-1145540D01*
G01X3742944Y-1150620D01*
G01X3745484Y-1158240D01*
G01X3750564Y-1163320D01*
G01X3755644Y-1165860D01*
G01X3763264Y-1165860D01*
G01X3768344Y-1163320D01*
G01X3773424Y-1158240D01*
G01X3775964Y-1150620D01*
G01X3775964Y-1145540D01*
G01X3773424Y-1137920D01*
G01X3768344Y-1132840D01*
G01X3763264Y-1130300D01*
G01X3755644Y-1130300D01*
G01X3808476Y-1112520D02*
G01X3811016Y-1115060D01*
G01X3813556Y-1112520D01*
G01X3811016Y-1109980D01*
G01X3808476Y-1112520D01*
G01X3811016Y-1130300D02*
G01X3811016Y-1165860D01*
G01X3846068Y-1130300D02*
G01X3846068Y-1165860D01*
G01X3846068Y-1140460D02*
G01X3853688Y-1132840D01*
G01X3858768Y-1130300D01*
G01X3866388Y-1130300D01*
G01X3871468Y-1132840D01*
G01X3874008Y-1140460D01*
G01X3874008Y-1165860D01*
G01X3937000Y-1130300D02*
G01X3937000Y-1170940D01*
G01X3934460Y-1178560D01*
G01X3931920Y-1181100D01*
G01X3926840Y-1183640D01*
G01X3919220Y-1183640D01*
G01X3914140Y-1181100D01*
G01X3937000Y-1137920D02*
G01X3931920Y-1132840D01*
G01X3926840Y-1130300D01*
G01X3919220Y-1130300D01*
G01X3914140Y-1132840D01*
G01X3909060Y-1137920D01*
G01X3906520Y-1145540D01*
G01X3906520Y-1150620D01*
G01X3909060Y-1158240D01*
G01X3914140Y-1163320D01*
G01X3919220Y-1165860D01*
G01X3926840Y-1165860D01*
G01X3931920Y-1163320D01*
G01X3937000Y-1158240D01*
G04 Text End*

G04 PolygonModel Start*
G54D10*
G01X5286799Y-2863828D02*
G01X5377432Y-2755816D01*
G01X5238992Y-2639651D02*
G01X5148358Y-2747663D01*
G01X5150237Y-2769134D02*
G01X5265328Y-2865707D01*
G01X5519642Y-2586337D02*
G01X5429008Y-2694349D01*
G01X5290568Y-2578184D02*
G01X5381201Y-2470172D01*
G01X5402672Y-2468293D02*
G01X5517763Y-2564866D01*
G01X5148358Y-2747663D02*
G03X5150237Y-2769134I11675J-9796D01*
G01X5265328Y-2865707D02*
G03X5286799Y-2863828I9796J11675D01*
G01X5381201Y-2470172D02*
G02X5402672Y-2468293I11675J-9796D01*
G01X5517763Y-2564866D02*
G02X5519642Y-2586337I-9796J-11675D01*
G01X4217861Y-2124220D02*
G01X4217861Y-1983219D01*
G01X4037140Y-1983219D02*
G01X4037140Y-2124220D01*
G01X4052380Y-2139460D02*
G01X4202621Y-2139460D01*
G01X4217861Y-1761980D02*
G01X4217861Y-1902981D01*
G01X4037140Y-1902981D02*
G01X4037140Y-1761980D01*
G01X4052380Y-1746740D02*
G01X4202621Y-1746740D01*
G01X4037140Y-2124220D02*
G03X4052380Y-2139460I15240J0D01*
G01X4202621Y-2139460D02*
G03X4217861Y-2124220I0J15240D01*
G01X4037140Y-1761980D02*
G02X4052380Y-1746740I15240J0D01*
G01X4202621Y-1746740D02*
G02X4217861Y-1761980I0J-15240D01*
G54D12*
G01X2808702Y-2463800D02*
G01X3058698Y-2463800D01*
G01X3058698Y-2742799D02*
G01X3058698Y-1168801D01*
G01X2808702Y-2742799D02*
G01X3058698Y-2742799D01*
G01X2808702Y-1168801D02*
G01X2808702Y-2742799D01*
G01X3058698Y-1168801D02*
G01X2808702Y-1168801D01*
G01X5558800Y-1754800D02*
G01X5718800Y-1754800D01*
G01X5718800Y-1754800D02*
G01X5718800Y-1394800D01*
G01X5718800Y-1394800D02*
G01X5558800Y-1394800D01*
G01X5558800Y-1394800D02*
G01X5558800Y-1754800D01*
G01X3730000Y-2173900D02*
G01X3890000Y-2173900D01*
G01X3890000Y-2173900D02*
G01X3890000Y-1813900D01*
G01X3890000Y-1813900D02*
G01X3730000Y-1813900D01*
G01X3730000Y-1813900D02*
G01X3730000Y-2173900D01*
G54D10*
G01X4682500Y-1572082D02*
G01X4490359Y-1572082D01*
G01X4490359Y-1572082D02*
G01X4490359Y-2517320D01*
G01X4490359Y-2517320D02*
G01X5034638Y-2517320D01*
G01X5034638Y-2517320D02*
G01X5034638Y-1572082D01*
G01X5034638Y-1572082D02*
G01X4842500Y-1572082D01*
G01X4682500Y-1572081D02*
G03X4842500Y-1572081I80000J0D01*
G54D12*
G01X4068064Y-526288D02*
G01X4068064Y-1110325D01*
G01X4068064Y-1110325D02*
G01X4069001Y-1111263D01*
G01X4069001Y-1111263D02*
G01X5328999Y-1111263D01*
G01X5328999Y-1111263D02*
G01X5328999Y-526288D01*
G54D11*
G01X4381500Y-526288D02*
G01X4381500Y-685800D01*
G01X4381500Y-685800D02*
G01X4508500Y-685800D01*
G01X4508500Y-685800D02*
G01X4508500Y-526288D01*
G01X4635500Y-526288D02*
G01X4635500Y-685800D01*
G01X4635500Y-685800D02*
G01X4762500Y-685800D01*
G01X4762500Y-685800D02*
G01X4762500Y-526288D01*
G01X4889500Y-526288D02*
G01X4889500Y-685800D01*
G01X4889500Y-685800D02*
G01X5016500Y-685800D01*
G01X5016500Y-685800D02*
G01X5016500Y-526288D01*
G01X5329936Y-526288D02*
G01X4318000Y-526288D01*
G01X4318000Y-526288D02*
G01X4068064Y-526288D01*

G04 Circle Start*
G54D13*
G01X4367251Y-1519453D02*
G03X4397273Y-1519453I15011J0D01*
G03X4367251Y-1519453I-15011J0D01*
G04 Circle End*

M02*

